# Rhino

mtllib container.mtl
g object_1
usemtl Default
v 0.47339225 0 0.51549888
v 0.47339225 1.0146048 0.51549888
v 0.51857221 0 0.51549888
v 0.51857221 1.0146048 0.51549888
v 0.51857221 0 0.51549888
v 0.51857221 1.0146048 0.51549888
v 0.51857221 0 0.49085528
v 0.51857221 1.0146048 0.49085528
v 0.51857221 0 0.49085528
v 0.51857221 1.0146048 0.49085528
v 0.47339225 0 0.49085528
v 0.47339225 1.0146048 0.49085528
v 0.47339225 0 0.49085528
v 0.47339225 1.0146048 0.49085528
v 0.47339225 0 0.51549888
v 0.47339225 1.0146048 0.51549888
v 0.47339225 0 0.51549888
v 0.51857221 0 0.51549888
v 0.51857221 0 0.49085528
v 0.47339225 0 0.49085528
v 0.47339225 1.0146048 0.51549888
v 0.51857221 1.0146048 0.51549888
v 0.51857221 1.0146048 0.49085528
v 0.47339225 1.0146048 0.49085528
vt 0 0
vt 0 1
vt 0.28132969 0
vt 0.28132969 1
vt 0.28132969 0
vt 0.28132969 1
vt 0.43478224 0
vt 0.43478224 1
vt 0.43478224 0
vt 0.43478224 1
vt 0.7161119 0
vt 0.7161119 1
vt 0.7161119 0
vt 0.7161119 1
vt 0.86956447 0
vt 0.86956447 1
vt 1 0.044529617
vt 1 0
vt 0.86956531 0
vt 0.86956531 0.044529617
vt 1 0.95547038
vt 1 1
vt 0.86956531 1
vt 0.86956531 0.95547038
vn 0 0 1
vn 0 0 1
vn 0 0 1
vn 0 0 1
vn 1 0 0
vn 1 0 0
vn 1 0 0
vn 1 0 0
vn 0 0 -1
vn 0 0 -1
vn 0 0 -1
vn 0 0 -1
vn -1 0 0
vn -1 0 0
vn -1 0 0
vn -1 0 0
vn 0 -1 0
vn 0 -1 0
vn 0 -1 0
vn 0 -1 0
vn 0 1 0
vn 0 1 0
vn 0 1 0
vn 0 1 0
f 1/1/1 3/3/3 4/4/4 2/2/2
f 5/5/5 7/7/7 8/8/8 6/6/6
f 9/9/9 11/11/11 12/12/12 10/10/10
f 13/13/13 15/15/15 16/16/16 14/14/14
f 18/18/18 17/17/17 20/20/20
f 20/20/20 19/19/19 18/18/18
f 22/22/22 24/24/24 21/21/21
f 24/24/24 22/22/22 23/23/23
g object_2
usemtl Default
v -0.5 0 0.5
v -0.5 0.0099999998 0.5
v 0.5 0 0.5
v 0.5 0.0099999998 0.5
v 0.5 0 0.5
v 0.5 0.0099999998 0.5
v 0.5 0 -0.5
v 0.5 0.0099999998 -0.5
v 0.5 0 -0.5
v 0.5 0.0099999998 -0.5
v -0.5 0 -0.5
v -0.5 0.0099999998 -0.5
v -0.5 0 -0.5
v -0.5 0.0099999998 -0.5
v -0.5 0 0.5
v -0.5 0.0099999998 0.5
v -0.5 0 0.5
v 0.5 0 0.5
v 0.5 0 -0.5
v -0.5 0 -0.5
v -0.5 0.0099999998 0.5
v 0.5 0.0099999998 0.5
v 0.5 0.0099999998 -0.5
v -0.5 0.0099999998 -0.5
vt 0 0
vt 0 0.5024873
vt 0.25 0
vt 0.25 0.5024873
vt 0.25 0
vt 0.25 0.5024873
vt 0.5 0
vt 0.5 0.5024873
vt 0.5 0
vt 0.5 0.5024873
vt 0.75 0
vt 0.75 0.5024873
vt 0.75 0
vt 0.75 0.5024873
vt 1 0
vt 1 0.5024873
vt 0 1
vt 0.25 1
vt 0.25 0.50248784
vt 0 0.50248784
vt 0.75 0.50248784
vt 1 0.50248784
vt 1 1
vt 0.75 1
vn 0 0 1
vn 0 0 1
vn 0 0 1
vn 0 0 1
vn 1 0 0
vn 1 0 0
vn 1 0 0
vn 1 0 0
vn 0 0 -1
vn 0 0 -1
vn 0 0 -1
vn 0 0 -1
vn -1 0 0
vn -1 0 0
vn -1 0 0
vn -1 0 0
vn 0 -1 0
vn 0 -1 0
vn 0 -1 0
vn 0 -1 0
vn 0 1 0
vn 0 1 0
vn 0 1 0
vn 0 1 0
f 25/25/25 27/27/27 28/28/28 26/26/26
f 29/29/29 31/31/31 32/32/32 30/30/30
f 33/33/33 35/35/35 36/36/36 34/34/34
f 37/37/37 39/39/39 40/40/40 38/38/38
f 42/42/42 41/41/41 44/44/44
f 44/44/44 43/43/43 42/42/42
f 46/46/46 48/48/48 45/45/45
f 48/48/48 46/46/46 47/47/47
g object_3
usemtl Default
v -0.51861793 0 0.51549888
v -0.51861793 1.0146048 0.51549888
v -0.47343796 0 0.51549888
v -0.47343796 1.0146048 0.51549888
v -0.47343796 0 0.51549888
v -0.47343796 1.0146048 0.51549888
v -0.47343796 0 0.49085528
v -0.47343796 1.0146048 0.49085528
v -0.47343796 0 0.49085528
v -0.47343796 1.0146048 0.49085528
v -0.51861793 0 0.49085528
v -0.51861793 1.0146048 0.49085528
v -0.51861793 0 0.49085528
v -0.51861793 1.0146048 0.49085528
v -0.51861793 0 0.51549888
v -0.51861793 1.0146048 0.51549888
v -0.51861793 0 0.51549888
v -0.47343796 0 0.51549888
v -0.47343796 0 0.49085528
v -0.51861793 0 0.49085528
v -0.51861793 1.0146048 0.51549888
v -0.47343796 1.0146048 0.51549888
v -0.47343796 1.0146048 0.49085528
v -0.51861793 1.0146048 0.49085528
vt 0 0
vt 0 1
vt 0.28132969 0
vt 0.28132969 1
vt 0.28132969 0
vt 0.28132969 1
vt 0.43478224 0
vt 0.43478224 1
vt 0.43478224 0
vt 0.43478224 1
vt 0.7161119 0
vt 0.7161119 1
vt 0.7161119 0
vt 0.7161119 1
vt 0.86956447 0
vt 0.86956447 1
vt 1 0.044529617
vt 1 0
vt 0.86956531 0
vt 0.86956531 0.044529617
vt 1 0.95547038
vt 1 1
vt 0.86956531 1
vt 0.86956531 0.95547038
vn 0 0 1
vn 0 0 1
vn 0 0 1
vn 0 0 1
vn 1 0 0
vn 1 0 0
vn 1 0 0
vn 1 0 0
vn 0 0 -1
vn 0 0 -1
vn 0 0 -1
vn 0 0 -1
vn -1 0 0
vn -1 0 0
vn -1 0 0
vn -1 0 0
vn 0 -1 0
vn 0 -1 0
vn 0 -1 0
vn 0 -1 0
vn 0 1 0
vn 0 1 0
vn 0 1 0
vn 0 1 0
f 49/49/49 51/51/51 52/52/52 50/50/50
f 53/53/53 55/55/55 56/56/56 54/54/54
f 57/57/57 59/59/59 60/60/60 58/58/58
f 61/61/61 63/63/63 64/64/64 62/62/62
f 66/66/66 65/65/65 68/68/68
f 68/68/68 67/67/67 66/66/66
f 70/70/70 72/72/72 69/69/69
f 72/72/72 70/70/70 71/71/71
g object_4
usemtl Default
v 0.47339225 0 -0.48784631
v 0.47339225 1.0146048 -0.48784631
v 0.51857221 0 -0.48784631
v 0.51857221 1.0146048 -0.48784631
v 0.51857221 0 -0.48784631
v 0.51857221 1.0146048 -0.48784631
v 0.51857221 0 -0.51248991
v 0.51857221 1.0146048 -0.51248991
v 0.51857221 0 -0.51248991
v 0.51857221 1.0146048 -0.51248991
v 0.47339225 0 -0.51248991
v 0.47339225 1.0146048 -0.51248991
v 0.47339225 0 -0.51248991
v 0.47339225 1.0146048 -0.51248991
v 0.47339225 0 -0.48784631
v 0.47339225 1.0146048 -0.48784631
v 0.47339225 0 -0.48784631
v 0.51857221 0 -0.48784631
v 0.51857221 0 -0.51248991
v 0.47339225 0 -0.51248991
v 0.47339225 1.0146048 -0.48784631
v 0.51857221 1.0146048 -0.48784631
v 0.51857221 1.0146048 -0.51248991
v 0.47339225 1.0146048 -0.51248991
vt 0 0
vt 0 1
vt 0.28132969 0
vt 0.28132969 1
vt 0.28132969 0
vt 0.28132969 1
vt 0.43478224 0
vt 0.43478224 1
vt 0.43478224 0
vt 0.43478224 1
vt 0.7161119 0
vt 0.7161119 1
vt 0.7161119 0
vt 0.7161119 1
vt 0.86956447 0
vt 0.86956447 1
vt 1 0.044529617
vt 1 0
vt 0.86956531 0
vt 0.86956531 0.044529617
vt 1 0.95547038
vt 1 1
vt 0.86956531 1
vt 0.86956531 0.95547038
vn 0 0 1
vn 0 0 1
vn 0 0 1
vn 0 0 1
vn 1 0 0
vn 1 0 0
vn 1 0 0
vn 1 0 0
vn 0 0 -1
vn 0 0 -1
vn 0 0 -1
vn 0 0 -1
vn -1 0 0
vn -1 0 0
vn -1 0 0
vn -1 0 0
vn 0 -1 0
vn 0 -1 0
vn 0 -1 0
vn 0 -1 0
vn 0 1 0
vn 0 1 0
vn 0 1 0
vn 0 1 0
f 73/73/73 75/75/75 76/76/76 74/74/74
f 77/77/77 79/79/79 80/80/80 78/78/78
f 81/81/81 83/83/83 84/84/84 82/82/82
f 85/85/85 87/87/87 88/88/88 86/86/86
f 90/90/90 89/89/89 92/92/92
f 92/92/92 91/91/91 90/90/90
f 94/94/94 96/96/96 93/93/93
f 96/96/96 94/94/94 95/95/95
g object_5
usemtl Default
v -0.51861793 0 -0.48784631
v -0.51861793 1.0146048 -0.48784631
v -0.47343796 0 -0.48784631
v -0.47343796 1.0146048 -0.48784631
v -0.47343796 0 -0.48784631
v -0.47343796 1.0146048 -0.48784631
v -0.47343796 0 -0.51248991
v -0.47343796 1.0146048 -0.51248991
v -0.47343796 0 -0.51248991
v -0.47343796 1.0146048 -0.51248991
v -0.51861793 0 -0.51248991
v -0.51861793 1.0146048 -0.51248991
v -0.51861793 0 -0.51248991
v -0.51861793 1.0146048 -0.51248991
v -0.51861793 0 -0.48784631
v -0.51861793 1.0146048 -0.48784631
v -0.51861793 0 -0.48784631
v -0.47343796 0 -0.48784631
v -0.47343796 0 -0.51248991
v -0.51861793 0 -0.51248991
v -0.51861793 1.0146048 -0.48784631
v -0.47343796 1.0146048 -0.48784631
v -0.47343796 1.0146048 -0.51248991
v -0.51861793 1.0146048 -0.51248991
vt 0 0
vt 0 1
vt 0.28132969 0
vt 0.28132969 1
vt 0.28132969 0
vt 0.28132969 1
vt 0.43478224 0
vt 0.43478224 1
vt 0.43478224 0
vt 0.43478224 1
vt 0.7161119 0
vt 0.7161119 1
vt 0.7161119 0
vt 0.7161119 1
vt 0.86956447 0
vt 0.86956447 1
vt 1 0.044529617
vt 1 0
vt 0.86956531 0
vt 0.86956531 0.044529617
vt 1 0.95547038
vt 1 1
vt 0.86956531 1
vt 0.86956531 0.95547038
vn 0 0 1
vn 0 0 1
vn 0 0 1
vn 0 0 1
vn 1 0 0
vn 1 0 0
vn 1 0 0
vn 1 0 0
vn 0 0 -1
vn 0 0 -1
vn 0 0 -1
vn 0 0 -1
vn -1 0 0
vn -1 0 0
vn -1 0 0
vn -1 0 0
vn 0 -1 0
vn 0 -1 0
vn 0 -1 0
vn 0 -1 0
vn 0 1 0
vn 0 1 0
vn 0 1 0
vn 0 1 0
f 97/97/97 99/99/99 100/100/100 98/98/98
f 101/101/101 103/103/103 104/104/104 102/102/102
f 105/105/105 107/107/107 108/108/108 106/106/106
f 109/109/109 111/111/111 112/112/112 110/110/110
f 114/114/114 113/113/113 116/116/116
f 116/116/116 115/115/115 114/114/114
f 118/118/118 120/120/120 117/117/117
f 120/120/120 118/118/118 119/119/119
